<svg xmlns="http://www.w3.org/2000/svg" width="48" height="48" class="icon" viewBox="0 0 1024 1024"><path fill="red" d="M844.8 608c-25.6 51.2-70.4 64-70.4 64-19.2 6.4-38.4 6.4-38.4 6.4H576c89.6-64 268.8-160 268.8-160 19.2 51.2 0 89.6 0 89.6M691.2 768c-32-6.4-89.6-51.2-108.8-64l211.2 6.4C742.4 787.2 691.2 768 691.2 768m-128-108.8q-9.6-9.6 0 0c76.8-179.2 192-313.6 192-313.6s57.6 57.6 57.6 115.2c0 44.8-32 70.4-32 70.4-64 44.8-185.6 108.8-217.6 128m-32-19.2c-32-307.2 32-384 32-384 19.2 0 32 6.4 32 6.4 57.6 12.8 70.4 64 70.4 64 12.8 25.6 0 64 0 64C646.4 473.6 556.8 608 531.2 640c6.4 0 0 0 0 0m-38.4 0c-25.6-32-115.2-166.4-134.4-249.6 0 0-12.8-32 0-64 0 0 12.8-51.2 70.4-64 0 0 25.6-6.4 32-6.4 0 0 64 76.8 32 384m-25.6 12.8s0 6.4 0 0q-9.6 9.6 0 0c-32-12.8-160-76.8-211.2-128 0 0-32-25.6-32-70.4-12.8-51.2 51.2-108.8 51.2-108.8S384 480 467.2 652.8M448 678.4s0 6.4 0 0H288s-19.2 0-38.4-6.4c0 0-44.8-12.8-64-64 0 0-19.2-38.4-6.4-89.6-6.4 0 172.8 96 268.8 160m-6.4 25.6c-19.2 12.8-83.2 57.6-108.8 64-38.4 12.8-76.8-19.2-102.4-64zq0-9.6 0 0c0-6.4 6.4 0 0 0M512 0C230.4 0 0 230.4 0 512s230.4 512 512 512 512-230.4 512-512S793.6 0 512 0"/></svg>