<?xml version="1.0" standalone="no"?><!DOCTYPE svg PUBLIC "-//W3C//DTD SVG 1.1//EN" "http://www.w3.org/Graphics/SVG/1.1/DTD/svg11.dtd"><svg t="1771582688657" class="icon" viewBox="0 0 1024 1024" version="1.1" xmlns="http://www.w3.org/2000/svg" p-id="1921" xmlns:xlink="http://www.w3.org/1999/xlink" width="48" height="48"><path d="M844.8 608c-25.6 51.2-70.4 64-70.4 64-19.2 6.4-38.4 6.4-38.4 6.4H576c89.6-64 268.8-160 268.8-160 19.2 51.2 0 89.6 0 89.6zM691.2 768c-32-6.4-89.6-51.2-108.8-64l211.2 6.4c-51.2 76.8-102.4 57.6-102.4 57.6z m-128-108.8c-6.4-6.4-6.4-6.4 0 0 76.8-179.2 192-313.6 192-313.6s57.6 57.6 57.6 115.2c0 44.8-32 70.4-32 70.4-64 44.8-185.6 108.8-217.6 128z m-32-19.2c-32-307.2 32-384 32-384 19.2 0 32 6.4 32 6.4 57.6 12.8 70.4 64 70.4 64 12.8 25.6 0 64 0 64-19.2 83.2-108.8 217.6-134.4 249.6 6.4 0 0 0 0 0z m-38.4 0c-25.6-32-115.2-166.4-134.4-249.6 0 0-12.8-32 0-64 0 0 12.8-51.2 70.4-64 0 0 25.6-6.4 32-6.4 0 0 64 76.8 32 384z m-25.6 12.8s0 6.4 0 0c-6.4 6.4-6.4 6.4 0 0C435.2 640 307.2 576 256 524.8c0 0-32-25.6-32-70.4-12.8-51.2 51.2-108.8 51.2-108.8s108.8 134.4 192 307.2z m-19.2 25.6s0 6.4 0 0H288s-19.2 0-38.4-6.4c0 0-44.8-12.8-64-64 0 0-19.2-38.4-6.4-89.6-6.4 0 172.8 96 268.8 160z m-6.4 25.6c-19.2 12.8-83.2 57.6-108.8 64-38.4 12.8-76.8-19.2-102.4-64h211.2c0-6.4 0-6.4 0 0 0-6.4 6.4 0 0 0zM512 0C230.4 0 0 230.4 0 512s230.4 512 512 512 512-230.4 512-512-230.4-512-512-512z" p-id="1922" fill="#FF0000"></path></svg>