<?xml version="1.0" encoding="UTF-8"?>
<svg width="48" height="48" xmlns="http://www.w3.org/2000/svg" viewBox="0 0 48 48">
  <path d="M24,0C10.75,0,0,10.75,0,24s10.75,24,24,24,24-10.75,24-24S37.25,0,24,0ZM30.05,24.76l2.87-1.74c-1.21-.76-2.64-1.28-4.23-1.66-.3-.09-.6-.16-.91-.22v14.96l-4.53,2.27v-2.95s0,0,0,0v2.95s0,0,0,0h0s0,0,0,0c-8.69-.76-14.36-4.99-14.36-10.13s5.52-9.14,12.85-10.05c0,0,.62-.08,1.51-.14v-6.13l4.53-2.27v8.47c.56.07.91.14.91.14,2.87.45,5.44,1.36,7.48,2.64l2.19-1.44.76,6.8-9.07-1.51Z" style="fill: #ff9626;"/>
  <path d="M21.73,21.2c-4.76.91-8.24,3.7-8.24,7.03,0,3.55,3.78,6.35,9.75,7.18v-14.44c-.92.1-1.51.23-1.51.23Z" style="fill: #ff9626;"/>
  <path d="M25.36,17.95c-.77,0-1.5.04-2.12.08v2.94c1.17-.12,2.86-.18,4.53.16v-3.02c-.6-.08-1.45-.16-2.42-.16Z" style="fill: none;"/>
</svg>
