<svg height="48" width="48" viewBox="0 0 24 24">
    <circle cx="12" cy="12" fill="#D34237" r="12"/>
    <path d="M19.3945,9.4904c0.0639,0.8284,-0.0762,1.821,-0.6232,1.8696c-0.8928,0.0798,-0.4271,-0.9037,-0.4154,-1.4957c0.0327,-1.7159,-1.4321,-2.9081,-2.8669,-2.9081c-0.4065,0,-1.3506,0.2755,-1.2052,-0.5817c0.0654,-0.378,0.3856,-0.3727,0.7062,-0.4154C17.4031,5.6373,19.225,7.2973,19.3945,9.4904L19.3945,9.4904zM15.4475,11.4848c1.0374,0.5676,2.2838,0.8502,2.0771,2.5346c-0.0495,0.4036,-0.2938,0.9429,-0.5399,1.2873c-1.7536,2.4548,-7.0427,3.4866,-10.3456,1.6208c-1.1077,-0.6261,-2.254,-1.5417,-2.0771,-3.3659c0.1522,-1.5699,1.2078,-2.786,2.2437,-3.8219c0.9882,-0.9888,2.0303,-1.7624,3.4483,-2.1189c1.5384,-0.3868,1.9932,0.8958,1.5787,2.1604c0.8911,-0.0598,2.7795,-1.0545,3.6147,-0.083C15.8155,10.1263,15.6745,10.8929,15.4475,11.4848L15.4475,11.4848zM14.3256,15.4731c0.3324,-0.3768,0.6665,-0.9511,0.6644,-1.62c-0.0044,-2.0648,-2.6055,-2.8275,-4.6529,-2.6591c-1.1198,0.0918,-1.8731,0.3282,-2.6591,0.7895c-0.6414,0.3765,-1.3921,0.9891,-1.5787,1.9108c-0.4201,2.0727,1.8343,3.0468,3.4898,3.1575C11.502,17.1805,13.4166,16.5052,14.3256,15.4731zM17.3583,9.4904c0.0871,0.6326,-0.0939,1.1807,-0.4569,1.2049c-0.6052,0.0403,-0.3789,-0.4145,-0.4157,-0.9555c-0.023,-0.3332,-0.2991,-0.718,-0.5402,-0.831c-0.4728,-0.2214,-1.2049,0.1613,-1.2049,-0.4984c0,-0.4898,0.4248,-0.4389,0.665,-0.4572C16.4578,7.8731,17.2356,8.5982,17.3583,9.4904zM12.4976,13.6453c0.8852,2.6753,-3.7268,3.9193,-4.5702,1.6202c-0.5643,-1.5375,0.7907,-2.7604,2.2019,-2.9081C11.3342,12.2311,12.2323,12.8455,12.4976,13.6453zM10.3786,14.1024c0.1878,0.325,0.6197,0.0916,0.5817,-0.166C10.915,13.6382,10.3748,13.6824,10.3786,14.1024zM9.6306,15.5152c0.7754,-0.1846,0.8796,-1.645,-0.2908,-1.3712C8.3566,14.3736,8.5467,15.7727,9.6306,15.5152z" fill="#FFFFFF"/>
</svg>