<svg width="48" height="48" viewBox="0 0 1024 1024" fill="none" xmlns="http://www.w3.org/2000/svg">
<path fill-rule="evenodd" clip-rule="evenodd" d="M512 1024C794.77 1024 1024 794.77 1024 512C1024 229.23 794.77 0 512 0C229.23 0 0 229.23 0 512C0 794.77 229.23 1024 512 1024ZM718.383 488.193C734.622 528.473 746.254 557.323 756.601 590.562C783.163 676.031 774.57 711.422 767.929 712.281C753.867 714 713.163 647.906 713.163 647.906C713.163 686.109 693.476 736.031 650.82 772.125C671.367 778.453 717.773 795.562 706.757 814.156C697.851 829.234 553.476 823.766 511.835 819.078C470.195 823.766 325.82 829.234 316.913 814.156C305.898 795.484 352.226 778.453 372.851 772.125C330.195 736.109 310.507 686.188 310.507 647.906C310.507 647.906 269.804 714 255.742 712.281C249.179 711.5 240.585 676.109 267.148 590.562C277.556 556.997 289.209 528.143 305.627 487.496C308.926 479.326 312.419 470.679 316.132 461.422C312.382 318.688 371.367 199 511.835 199C650.742 199 711.054 316.344 707.617 461.422C711.425 470.936 715.003 479.812 718.383 488.193Z" fill="#259BE0"/>
</svg>
